<svg version="1.2" xmlns="http://www.w3.org/2000/svg" viewBox="0 0 7680 1864" width="7680" height="1864">
	<style>
		.s0 { fill: #ffffff } 
	</style>
	<path id=" schnorr" fill-rule="evenodd" class="s0" d="m728.9 601.38q104.13 0 182.94 6.17 78.8 6.18 177.31 18.53 90.06 10.29 129.46 10.29 36.59 0 50.66-6.18 14.08-6.17 25.33-16.46 11.26-12.35 28.15-12.35 30.96 0 30.96 26.76 0 10.29-2.82 20.58-11.26 37.04-11.26 125.54 0 98.79 22.52 197.57l5.63 39.11q0 24.69-28.15 24.69-16.88 0-25.33-14.4-8.44-14.41-11.25-69.98-5.63-121.42-56.29-191.4-50.66-69.97-168.87-102.9-118.21-32.93-332.11-32.93-275.81 0-419.35 53.51-140.73 51.45-140.73 158.47 0 57.63 47.85 96.73 50.66 39.1 168.87 67.92 118.21 28.81 332.1 53.51 273.01 30.87 430.62 72.03 157.61 39.1 227.97 98.79 70.36 59.68 70.36 150.24 0 144.06-166.05 220.21-163.24 76.15-523.49 76.15-115.4 0-216.72-6.17-98.5-6.18-216.71-18.53-98.51-10.29-140.72-10.29-36.59 0-50.66 6.18-14.08 6.17-25.33 16.46-11.26 12.35-28.15 12.35-30.96 0-30.96-26.75 2.82-10.29 2.82-20.59 11.25-45.27 11.25-131.71 0-102.91-22.51-201.69l-5.63-37.05q0-24.7 33.77-24.7 14.08 0 19.7 8.24 8.45 6.17 8.45 22.64 0 142 64.73 226.38 64.73 82.33 202.64 121.43 140.73 37.05 379.96 37.05 267.37 0 408.09-55.57 140.73-55.57 140.73-162.59 0-98.79-115.4-150.24-112.58-53.51-388.39-84.38-298.34-32.93-461.58-69.98-163.23-39.1-233.6-90.55-70.36-51.45-70.36-131.72 0-142.01 180.13-220.21 182.94-78.21 509.42-78.21zm1838.77 677.11q16.88 0 18.29 10.29 2.82 7.2 0 30.87-2.81 2.06-2.81 7.2-40.81 179.06-160.43 262.41-119.61 82.32-337.73 82.32-174.5 0-309.59-61.74-133.69-62.77-208.27-174.94-74.59-112.16-78.81-257.26-4.22-162.59 70.36-292.24 74.59-132.75 213.9-207.87 140.72-76.15 322.26-76.15 92.88 0 219.53 21.61 84.43 13.38 130.87 13.38 22.51 0 33.77-4.12 11.26-7.2 19.7-17.49 4.23-5.15 11.26-9.26 7.04-4.12 16.89-4.12 26.74 0 26.74 24.7 0 9.26-4.23 23.67-12.66 50.42-12.66 145.09 0 101.87 19.7 181.11 5.63 20.58 7.04 37.05 0 11.32-8.45 18.52-4.22 4.11-18.29 4.11-14.07 0-21.11-6.17-5.63-8.23-5.63-27.78 0-123.49-45.03-206.84-43.62-83.35-137.91-125.54-94.28-43.22-250.49-43.22-202.64 0-312.4 129.66-108.36 129.66-98.51 352.96 11.26 222.27 137.91 344.72 126.65 122.46 343.37 122.46 173.08 0 273-66.89 102.73-68.94 115.39-187.28 4.22-24.7 8.44-32.93 8.45-10.29 23.93-10.29zm811.21 372.51q-53.12 0.26-98.86 5.66-44.32 2.57-91.11 2.57-32.72 0-32.72-18.52 0-16.47 29.9-16.47h20.05q42.57 1.81 67.2-2.05 24.63-7.72 36.59-30.87 16.18-24.96 15.48-78.73v-589.63q0-87.22-23.93-140.47-19.35-55.57-67.54-80.26-43.28-26.76-119.97-26.76-143.19 0-223.4 107.02-76.69 107.02-76.69 293.28v436.82q2.11 53.51 14.77 78.73 17.95 23.15 39.41 28.81 25.33 4.11 67.19 2.57h23.57q29.91 0 29.91 16.47 0 18.52-32.72 18.52-44.33-0.26-90.77-2.83-58.05-3.6-99.21-3.86h-52.77q-36.24 0.26-94.99 3.86-42.57 2.57-77.4 4.37-32.71 0-32.71-18.52 0-16.47 29.9-16.47 52.07 0 71.07-2.05 21.46-5.15 36.58-26.76 17.24-24.7 19.71-82.84v-1090.26q0-32.42-14.08-49.4-9.14-19.03-39.4-24.69-25.68-9.26-79.51-9.26-11.61 0-19-3.09-4.92-5.15-4.92-13.12 0-10.03 10.55-13.64 12.67-6.43 32.02-10.8 67.19-14.66 121.37-42.19 48.2-22.9 88.66-51.71 27.79-16.72 37.64-16.72 23.57 0 23.57 18.52l-2.81 23.41q-22.52 167.73-22.52 501.4v33.19q0 29.32 16.89 27.78v0.49q7.05-0.38 11.96-5.89 5.63-6.43 14.07-16.72 64.03-86.7 140.73-127.35 80.56-41.16 185.05-41.16 153.38 0 231.49 74.09 79.5 73.83 79.5 216.61v620.51q-0.35 58.14 13.37 82.84 16.19 21.61 33.78 26.76 9.89 0.9 25.49 1.41 32.13-0.99 47.21-3.47 28.85-5.15 45.03-32.93 19-28.81 20.76-100.33v-642.64q0-35.5-12.32-51.45-12.31-18.01-45.03-22.64-28.14-7.2-105.19-7.2-12.31 0-21.46-3.09-5.28-5.14-5.28-12.6 0-9.52 10.91-14.15 13.72-4.89 37.99-9.78 77.75-15.18 133.34-40.13 63.68-24.7 103.08-56.34 23.57-17.24 39.75-17.24 23.93 0 23.93 18.53l-5.63 38.58q-16.54 67.41-18.3 141.75 0 24.7 13.72 24.7 4.58 0 7.04-3.34 7.74-3.6 10.56-9.01l7.38-10.29q73.18-107.02 181.89-157.7 109.41-51.45 260.69-51.45 206.86 0 307.83 84.38 101.67 83.61 101.67 252.63v548.48q-1.05 71.52 13.72 100.33 18.65 27.78 45.03 32.93 26.39 4.11 98.16 4.11 27.79 0 27.79 16.47 0 18.52-30.61 18.52-48.19-1.28-119.61-4.89-51.36-2.57-87.95-3.34h-48.55q-46.79 0.77-88.31 4.63-82.32 3.6-172.03 3.6-30.61 0-30.61-18.52 0-16.47 27.8-16.47h37.64q71.42 1.29 104.84-4.11 35.53-8.75 50.66-37.05 18.64-29.58 16.53-96.21v-517.61q0-105.22-33.42-168.25-28.85-65.85-95.69-94.67-66.84-30.87-178.72-30.87-193.14 0-302.55 115.25-108.01 115.26-108.01 315.92v380.23q0.7 65.86 17.94 96.21 18.3 28.3 50.66 34.99 34.83 6.17 104.14 5.66h42.57q27.79 0 27.79 16.47 0 18.52-30.61 18.52-82.32-0.77-170.98-4.38-50.3-2.57-89.35-3.34h-57q-35.53 0.77-87.95 3.34-0.89 0.05-1.79 0.09-8.17 4.8-24.82 4.8-17.25-0.89-36.39-1.97-31.47 1.3-56.61 1.97-18.32 0-25.67-6.63-31.05-1.44-53.72-1.6zm2034.8 20.58q-187.16 0-336.33-63.8-144.94-66.89-230.78-185.23-84.44-119.37-87.25-271.66-5.63-151.27 75.99-275.79 83.03-127.6 227.97-199.63 149.17-74.09 330.7-74.09 184.35 0 330.7 65.86 146.35 63.8 230.79 181.11 87.24 116.28 92.87 268.58 5.63 152.3-75.99 280.93-80.21 125.54-227.97 199.63-146.35 74.09-330.7 74.09zm-477.05-570.09q5.63 163.62 73.18 286.08 67.54 121.42 180.12 187.28 116.8 65.86 263.15 65.86 133.69 0 229.38-53.51 97.1-56.6 146.35-158.47 49.26-104.96 42.22-246.97-5.63-167.73-73.17-292.25-66.14-127.6-180.13-195.52-111.17-67.91-254.71-67.91-135.09 0-235.01 59.68-98.5 56.6-149.16 164.65-47.85 108.05-42.22 251.08zm1187.15-257.26q0-30.87-11.25-49.39-11.26-18.52-39.41-26.76-25.33-8.23-67.54-8.23-11.26 0-16.89-4.11-5.63-4.12-5.63-12.35 0-10.29 11.26-14.41 11.26-6.17 28.14-10.29 61.92-14.41 115.4-43.22 47.84-24.7 70.36-49.39 22.51-16.47 36.59-16.47 19.7 0 19.7 18.53l-5.63 49.39q-2.82 34.99-5.63 69.97 0 24.7 16.89 24.7 11.25 0 22.51-14.41l8.45-12.34q53.47-74.09 104.13-109.08 53.48-34.99 115.39-34.99 45.03 0 73.18 18.52 28.14 18.53 28.14 49.4 0 28.81-22.51 47.33-22.52 18.53-59.11 18.53-16.88 0-39.4-4.12-19.7-6.17-50.66-6.17-90.06 0-135.09 80.26-45.03 80.27-45.03 255.2v343.7l5.62 121.43q2.82 47.33 25.34 69.97 25.33 20.58 59.1 26.76 36.59 4.11 87.25 2.05h22.51q53.48 0 53.48 16.47 0 18.52-59.11 18.52-42.21 0-87.24-2.06-87.25-6.17-191.39-6.17h-19.7q-36.59 0-98.51 4.12-28.14 2.05-56.28 4.11-33.78 0-33.78-18.52 0-16.47 30.96-16.47 42.22 0 59.1-2.05 16.89-4.12 30.96-24.7 16.89-20.58 19.7-72.03l5.63-121.43zm745.27 0q0-38.59-13.02-53.51-13.01-16.98-47.84-20.58-30.96-5.15-131.23-5.15-13.01 0-23.57-3.08-5.98-5.15-5.98-12.09 0-9.01 11.61-12.61 14.42-5.4 43.62-10.8 88.31-15.7 145.3-38.08 74.23-24.7 124.89-60.97 24.28-17.75 41.87-17.75 26.74 0 26.74 18.52l-5.63 31.39q-25.69 89.01-26.74 189.6 0 24.7 11.61 24.7 7.74 0 22.51-22.13l8.45-12.35q85.14-115.25 206.86-176.22 126.65-61.74 276.52-61.74 46.79 0 75.29 18.52 31.31 18.52 31.31 49.39 0 28.82-25.68 47.34-22.87 18.52-61.22 18.52-16.88 0-49.95-4.11-54.89-6.18-89.36-6.18-192.09 0-292 109.08-97.45 108.05-97.45 328.01v242.08l2.11 57.11q1.05 79.49 30.6 113.71 32.37 33.44 95.7 43.22 66.84 6.94 212.49 6.17h78.8q39.41 0 39.41 16.47 0 18.52-45.04 18.52-184.7 0-359.9-4.63-59.1-2.32-126.3-3.6h-42.56q-34.83 1.28-80.92 2.83-100.26 4.63-161.83 5.4-28.5 0-28.5-18.52 0-16.47 25.68-16.47 91.47 0 122.79-4.11 35.88-7.21 56.28-39.11 21.11-34.98 22.17-119.88l2.11-57.11z"/>
</svg>